%TF.GenerationSoftware,KiCad,Pcbnew,9.0.7*%
%TF.CreationDate,2026-03-15T12:01:33+05:30*%
%TF.ProjectId,TEMPERATURE INDICATOR PCB,54454d50-4552-4415-9455-524520494e44,rev?*%
%TF.SameCoordinates,Original*%
%TF.FileFunction,Legend,Top*%
%TF.FilePolarity,Positive*%
%FSLAX46Y46*%
G04 Gerber Fmt 4.6, Leading zero omitted, Abs format (unit mm)*
G04 Created by KiCad (PCBNEW 9.0.7) date 2026-03-15 12:01:33*
%MOMM*%
%LPD*%
G01*
G04 APERTURE LIST*
%ADD10C,0.150000*%
%ADD11C,0.120000*%
G04 APERTURE END LIST*
D10*
X136214286Y-57584819D02*
X136785714Y-57584819D01*
X136500000Y-58584819D02*
X136500000Y-57584819D01*
X137119048Y-58584819D02*
X137119048Y-57584819D01*
X137119048Y-58061009D02*
X137690476Y-58061009D01*
X137690476Y-58584819D02*
X137690476Y-57584819D01*
X138690476Y-58584819D02*
X138119048Y-58584819D01*
X138404762Y-58584819D02*
X138404762Y-57584819D01*
X138404762Y-57584819D02*
X138309524Y-57727676D01*
X138309524Y-57727676D02*
X138214286Y-57822914D01*
X138214286Y-57822914D02*
X138119048Y-57870533D01*
X142713333Y-74954819D02*
X142380000Y-74478628D01*
X142141905Y-74954819D02*
X142141905Y-73954819D01*
X142141905Y-73954819D02*
X142522857Y-73954819D01*
X142522857Y-73954819D02*
X142618095Y-74002438D01*
X142618095Y-74002438D02*
X142665714Y-74050057D01*
X142665714Y-74050057D02*
X142713333Y-74145295D01*
X142713333Y-74145295D02*
X142713333Y-74288152D01*
X142713333Y-74288152D02*
X142665714Y-74383390D01*
X142665714Y-74383390D02*
X142618095Y-74431009D01*
X142618095Y-74431009D02*
X142522857Y-74478628D01*
X142522857Y-74478628D02*
X142141905Y-74478628D01*
X143094286Y-74050057D02*
X143141905Y-74002438D01*
X143141905Y-74002438D02*
X143237143Y-73954819D01*
X143237143Y-73954819D02*
X143475238Y-73954819D01*
X143475238Y-73954819D02*
X143570476Y-74002438D01*
X143570476Y-74002438D02*
X143618095Y-74050057D01*
X143618095Y-74050057D02*
X143665714Y-74145295D01*
X143665714Y-74145295D02*
X143665714Y-74240533D01*
X143665714Y-74240533D02*
X143618095Y-74383390D01*
X143618095Y-74383390D02*
X143046667Y-74954819D01*
X143046667Y-74954819D02*
X143665714Y-74954819D01*
X132523333Y-75084819D02*
X132190000Y-74608628D01*
X131951905Y-75084819D02*
X131951905Y-74084819D01*
X131951905Y-74084819D02*
X132332857Y-74084819D01*
X132332857Y-74084819D02*
X132428095Y-74132438D01*
X132428095Y-74132438D02*
X132475714Y-74180057D01*
X132475714Y-74180057D02*
X132523333Y-74275295D01*
X132523333Y-74275295D02*
X132523333Y-74418152D01*
X132523333Y-74418152D02*
X132475714Y-74513390D01*
X132475714Y-74513390D02*
X132428095Y-74561009D01*
X132428095Y-74561009D02*
X132332857Y-74608628D01*
X132332857Y-74608628D02*
X131951905Y-74608628D01*
X133475714Y-75084819D02*
X132904286Y-75084819D01*
X133190000Y-75084819D02*
X133190000Y-74084819D01*
X133190000Y-74084819D02*
X133094762Y-74227676D01*
X133094762Y-74227676D02*
X132999524Y-74322914D01*
X132999524Y-74322914D02*
X132904286Y-74370533D01*
X137404761Y-65850057D02*
X137309523Y-65802438D01*
X137309523Y-65802438D02*
X137214285Y-65707200D01*
X137214285Y-65707200D02*
X137071428Y-65564342D01*
X137071428Y-65564342D02*
X136976190Y-65516723D01*
X136976190Y-65516723D02*
X136880952Y-65516723D01*
X136928571Y-65754819D02*
X136833333Y-65707200D01*
X136833333Y-65707200D02*
X136738095Y-65611961D01*
X136738095Y-65611961D02*
X136690476Y-65421485D01*
X136690476Y-65421485D02*
X136690476Y-65088152D01*
X136690476Y-65088152D02*
X136738095Y-64897676D01*
X136738095Y-64897676D02*
X136833333Y-64802438D01*
X136833333Y-64802438D02*
X136928571Y-64754819D01*
X136928571Y-64754819D02*
X137119047Y-64754819D01*
X137119047Y-64754819D02*
X137214285Y-64802438D01*
X137214285Y-64802438D02*
X137309523Y-64897676D01*
X137309523Y-64897676D02*
X137357142Y-65088152D01*
X137357142Y-65088152D02*
X137357142Y-65421485D01*
X137357142Y-65421485D02*
X137309523Y-65611961D01*
X137309523Y-65611961D02*
X137214285Y-65707200D01*
X137214285Y-65707200D02*
X137119047Y-65754819D01*
X137119047Y-65754819D02*
X136928571Y-65754819D01*
X138309523Y-65754819D02*
X137738095Y-65754819D01*
X138023809Y-65754819D02*
X138023809Y-64754819D01*
X138023809Y-64754819D02*
X137928571Y-64897676D01*
X137928571Y-64897676D02*
X137833333Y-64992914D01*
X137833333Y-64992914D02*
X137738095Y-65040533D01*
X146486905Y-64954819D02*
X146486905Y-63954819D01*
X146486905Y-63954819D02*
X146725000Y-63954819D01*
X146725000Y-63954819D02*
X146867857Y-64002438D01*
X146867857Y-64002438D02*
X146963095Y-64097676D01*
X146963095Y-64097676D02*
X147010714Y-64192914D01*
X147010714Y-64192914D02*
X147058333Y-64383390D01*
X147058333Y-64383390D02*
X147058333Y-64526247D01*
X147058333Y-64526247D02*
X147010714Y-64716723D01*
X147010714Y-64716723D02*
X146963095Y-64811961D01*
X146963095Y-64811961D02*
X146867857Y-64907200D01*
X146867857Y-64907200D02*
X146725000Y-64954819D01*
X146725000Y-64954819D02*
X146486905Y-64954819D01*
X148010714Y-64954819D02*
X147439286Y-64954819D01*
X147725000Y-64954819D02*
X147725000Y-63954819D01*
X147725000Y-63954819D02*
X147629762Y-64097676D01*
X147629762Y-64097676D02*
X147534524Y-64192914D01*
X147534524Y-64192914D02*
X147439286Y-64240533D01*
X125793333Y-63404819D02*
X125317143Y-63404819D01*
X125317143Y-63404819D02*
X125269524Y-63881009D01*
X125269524Y-63881009D02*
X125317143Y-63833390D01*
X125317143Y-63833390D02*
X125412381Y-63785771D01*
X125412381Y-63785771D02*
X125650476Y-63785771D01*
X125650476Y-63785771D02*
X125745714Y-63833390D01*
X125745714Y-63833390D02*
X125793333Y-63881009D01*
X125793333Y-63881009D02*
X125840952Y-63976247D01*
X125840952Y-63976247D02*
X125840952Y-64214342D01*
X125840952Y-64214342D02*
X125793333Y-64309580D01*
X125793333Y-64309580D02*
X125745714Y-64357200D01*
X125745714Y-64357200D02*
X125650476Y-64404819D01*
X125650476Y-64404819D02*
X125412381Y-64404819D01*
X125412381Y-64404819D02*
X125317143Y-64357200D01*
X125317143Y-64357200D02*
X125269524Y-64309580D01*
X126126667Y-63404819D02*
X126460000Y-64404819D01*
X126460000Y-64404819D02*
X126793333Y-63404819D01*
X127650476Y-64404819D02*
X127079048Y-64404819D01*
X127364762Y-64404819D02*
X127364762Y-63404819D01*
X127364762Y-63404819D02*
X127269524Y-63547676D01*
X127269524Y-63547676D02*
X127174286Y-63642914D01*
X127174286Y-63642914D02*
X127079048Y-63690533D01*
D11*
%TO.C,TH1*%
X134230000Y-59130000D02*
X140770000Y-59130000D01*
X134230000Y-59460000D02*
X134230000Y-59130000D01*
X134230000Y-61540000D02*
X134230000Y-61870000D01*
X134230000Y-61870000D02*
X140770000Y-61870000D01*
X140770000Y-59130000D02*
X140770000Y-59460000D01*
X140770000Y-61870000D02*
X140770000Y-61540000D01*
%TO.C,R2*%
X139610000Y-75630000D02*
X146150000Y-75630000D01*
X139610000Y-75960000D02*
X139610000Y-75630000D01*
X139610000Y-78040000D02*
X139610000Y-78370000D01*
X139610000Y-78370000D02*
X146150000Y-78370000D01*
X146150000Y-75630000D02*
X146150000Y-75960000D01*
X146150000Y-78370000D02*
X146150000Y-78040000D01*
%TO.C,R1*%
X129420000Y-75630000D02*
X135960000Y-75630000D01*
X129420000Y-75960000D02*
X129420000Y-75630000D01*
X129420000Y-78040000D02*
X129420000Y-78370000D01*
X129420000Y-78370000D02*
X135960000Y-78370000D01*
X135960000Y-75630000D02*
X135960000Y-75960000D01*
X135960000Y-78370000D02*
X135960000Y-78040000D01*
%TO.C,Q1*%
X135700000Y-70710000D02*
X139300000Y-70710000D01*
X135661522Y-70698478D02*
G75*
G02*
X137500000Y-66259999I1838478J1838478D01*
G01*
X137500000Y-66260000D02*
G75*
G02*
X139338478Y-70698478I0J-2600000D01*
G01*
%TO.C,D1*%
X143935000Y-66955000D02*
X143935000Y-70045000D01*
X143935000Y-66955170D02*
G75*
G02*
X149485000Y-68500000I2560000J-1544830D01*
G01*
X149485000Y-68500000D02*
G75*
G02*
X143935000Y-70044830I-2990000J0D01*
G01*
X148995000Y-68500000D02*
G75*
G02*
X143995000Y-68500000I-2500000J0D01*
G01*
X143995000Y-68500000D02*
G75*
G02*
X148995000Y-68500000I2500000J0D01*
G01*
%TO.C,5V1*%
X120880000Y-64650000D02*
X122880000Y-64650000D01*
X120880000Y-65900000D02*
X120880000Y-64650000D01*
X122420000Y-66000000D02*
X125420000Y-66000000D01*
X122420000Y-67350000D02*
X123170000Y-67350000D01*
X122420000Y-71650000D02*
X122420000Y-67350000D01*
X122670000Y-67000000D02*
X122420000Y-66000000D01*
X123170000Y-67000000D02*
X122670000Y-67000000D01*
X123170000Y-67350000D02*
X123170000Y-67000000D01*
X123170000Y-71650000D02*
X122420000Y-71650000D01*
X124670000Y-67000000D02*
X124670000Y-67350000D01*
X124670000Y-67350000D02*
X125420000Y-67350000D01*
X125170000Y-67000000D02*
X124670000Y-67000000D01*
X125420000Y-66000000D02*
X125170000Y-67000000D01*
X125420000Y-67350000D02*
X125420000Y-71650000D01*
X125420000Y-71650000D02*
X124670000Y-71650000D01*
X127500000Y-66000000D02*
X130500000Y-66000000D01*
X127500000Y-67350000D02*
X128250000Y-67350000D01*
X127500000Y-71650000D02*
X127500000Y-67350000D01*
X127750000Y-67000000D02*
X127500000Y-66000000D01*
X128250000Y-67000000D02*
X127750000Y-67000000D01*
X128250000Y-67350000D02*
X128250000Y-67000000D01*
X128250000Y-71650000D02*
X127500000Y-71650000D01*
X129750000Y-67000000D02*
X129750000Y-67350000D01*
X129750000Y-67350000D02*
X130500000Y-67350000D01*
X130250000Y-67000000D02*
X129750000Y-67000000D01*
X130500000Y-66000000D02*
X130250000Y-67000000D01*
X130500000Y-67350000D02*
X130500000Y-71650000D01*
X130500000Y-71650000D02*
X129750000Y-71650000D01*
X121270000Y-65040000D02*
X131650000Y-65040000D01*
X131650000Y-72510000D01*
X121270000Y-72510000D01*
X121270000Y-65040000D01*
X123170000Y-71650000D02*
G75*
G02*
X124669647Y-71649844I750000J-1700000D01*
G01*
X128250000Y-71650000D02*
G75*
G02*
X129749647Y-71649844I750000J-1700000D01*
G01*
%TD*%
M02*
